<mxfile host="app.diagrams.net" modified="2024-03-01T14:23:27.289Z" agent="Mozilla/5.0 (Windows NT 10.0; Win64; x64) AppleWebKit/537.36 (KHTML, like Gecko) Chrome/122.0.0.0 Safari/537.36" etag="mvLX1mvGK_h_jjYxRhnG" version="24.0.0" type="device">
  <diagram name="Page-1" id="8as4IuF7zsJTL4noHEDX">
    <mxGraphModel dx="1050" dy="522" grid="1" gridSize="10" guides="1" tooltips="1" connect="1" arrows="1" fold="1" page="1" pageScale="1" pageWidth="850" pageHeight="1100" math="0" shadow="0">
      <root>
        <mxCell id="0" />
        <mxCell id="1" parent="0" />
        <mxCell id="8VyqAe7qQzPJQSPvrDRt-14" style="edgeStyle=orthogonalEdgeStyle;rounded=0;orthogonalLoop=1;jettySize=auto;html=1;exitX=1;exitY=0.5;exitDx=0;exitDy=0;entryX=0;entryY=0.5;entryDx=0;entryDy=0;" edge="1" parent="1" source="8VyqAe7qQzPJQSPvrDRt-1" target="8VyqAe7qQzPJQSPvrDRt-3">
          <mxGeometry relative="1" as="geometry">
            <Array as="points">
              <mxPoint x="180" y="245" />
              <mxPoint x="180" y="245" />
            </Array>
          </mxGeometry>
        </mxCell>
        <mxCell id="8VyqAe7qQzPJQSPvrDRt-15" style="edgeStyle=orthogonalEdgeStyle;rounded=0;orthogonalLoop=1;jettySize=auto;html=1;exitX=1;exitY=0.5;exitDx=0;exitDy=0;entryX=0;entryY=0.5;entryDx=0;entryDy=0;" edge="1" parent="1" source="8VyqAe7qQzPJQSPvrDRt-1" target="8VyqAe7qQzPJQSPvrDRt-4">
          <mxGeometry relative="1" as="geometry" />
        </mxCell>
        <mxCell id="8VyqAe7qQzPJQSPvrDRt-16" style="edgeStyle=orthogonalEdgeStyle;rounded=0;orthogonalLoop=1;jettySize=auto;html=1;exitX=1;exitY=0.5;exitDx=0;exitDy=0;entryX=0;entryY=0.5;entryDx=0;entryDy=0;" edge="1" parent="1" source="8VyqAe7qQzPJQSPvrDRt-1" target="8VyqAe7qQzPJQSPvrDRt-2">
          <mxGeometry relative="1" as="geometry" />
        </mxCell>
        <mxCell id="8VyqAe7qQzPJQSPvrDRt-1" value="&lt;b&gt;&lt;font color=&quot;#000000&quot; style=&quot;font-size: 15px;&quot;&gt;Training Dataset&lt;/font&gt;&lt;/b&gt;" style="rounded=1;whiteSpace=wrap;html=1;fillColor=#c9dfb3;fontColor=#ffffff;strokeColor=#2D7600;" vertex="1" parent="1">
          <mxGeometry x="40" y="220" width="110" height="50" as="geometry" />
        </mxCell>
        <mxCell id="8VyqAe7qQzPJQSPvrDRt-27" style="edgeStyle=orthogonalEdgeStyle;rounded=0;orthogonalLoop=1;jettySize=auto;html=1;exitX=1;exitY=0.5;exitDx=0;exitDy=0;entryX=0;entryY=0.5;entryDx=0;entryDy=0;" edge="1" parent="1" source="8VyqAe7qQzPJQSPvrDRt-2" target="8VyqAe7qQzPJQSPvrDRt-5">
          <mxGeometry relative="1" as="geometry" />
        </mxCell>
        <mxCell id="8VyqAe7qQzPJQSPvrDRt-2" value="&lt;b&gt;&lt;font color=&quot;#000000&quot; style=&quot;font-size: 14px;&quot;&gt;Data Transformation&lt;/font&gt;&lt;/b&gt;" style="rounded=1;whiteSpace=wrap;html=1;fillColor=#eac2ea;fontColor=#ffffff;strokeColor=#2D7600;" vertex="1" parent="1">
          <mxGeometry x="210" y="110" width="110" height="50" as="geometry" />
        </mxCell>
        <mxCell id="8VyqAe7qQzPJQSPvrDRt-17" style="edgeStyle=orthogonalEdgeStyle;rounded=0;orthogonalLoop=1;jettySize=auto;html=1;exitX=1;exitY=0.5;exitDx=0;exitDy=0;entryX=0;entryY=0.5;entryDx=0;entryDy=0;" edge="1" parent="1" source="8VyqAe7qQzPJQSPvrDRt-3" target="8VyqAe7qQzPJQSPvrDRt-6">
          <mxGeometry relative="1" as="geometry" />
        </mxCell>
        <mxCell id="8VyqAe7qQzPJQSPvrDRt-3" value="&lt;b style=&quot;&quot;&gt;&lt;font style=&quot;font-size: 15px;&quot; color=&quot;#000000&quot;&gt;......&lt;/font&gt;&lt;/b&gt;" style="rounded=1;whiteSpace=wrap;html=1;fillColor=#eac2ea;fontColor=#ffffff;strokeColor=#2D7600;" vertex="1" parent="1">
          <mxGeometry x="210" y="220" width="110" height="50" as="geometry" />
        </mxCell>
        <mxCell id="8VyqAe7qQzPJQSPvrDRt-24" style="edgeStyle=orthogonalEdgeStyle;rounded=0;orthogonalLoop=1;jettySize=auto;html=1;exitX=1;exitY=0.5;exitDx=0;exitDy=0;" edge="1" parent="1" source="8VyqAe7qQzPJQSPvrDRt-4" target="8VyqAe7qQzPJQSPvrDRt-7">
          <mxGeometry relative="1" as="geometry" />
        </mxCell>
        <mxCell id="8VyqAe7qQzPJQSPvrDRt-4" value="&lt;b&gt;&lt;font style=&quot;font-size: 13px;&quot;&gt;Data Transformation&lt;/font&gt;&lt;/b&gt;" style="rounded=1;whiteSpace=wrap;html=1;fillColor=#eac2ea;fontColor=#ffffff;strokeColor=#2D7600;" vertex="1" parent="1">
          <mxGeometry x="210" y="330" width="110" height="50" as="geometry" />
        </mxCell>
        <mxCell id="8VyqAe7qQzPJQSPvrDRt-28" style="edgeStyle=orthogonalEdgeStyle;rounded=0;orthogonalLoop=1;jettySize=auto;html=1;exitX=1;exitY=0.5;exitDx=0;exitDy=0;entryX=0;entryY=0.5;entryDx=0;entryDy=0;" edge="1" parent="1" source="8VyqAe7qQzPJQSPvrDRt-5" target="8VyqAe7qQzPJQSPvrDRt-8">
          <mxGeometry relative="1" as="geometry" />
        </mxCell>
        <mxCell id="8VyqAe7qQzPJQSPvrDRt-5" value="&lt;b&gt;&lt;font color=&quot;#000000&quot; style=&quot;font-size: 15px;&quot;&gt;Classifier&lt;/font&gt;&lt;/b&gt;" style="rounded=1;whiteSpace=wrap;html=1;fillColor=#6ac882;fontColor=#ffffff;strokeColor=#2D7600;" vertex="1" parent="1">
          <mxGeometry x="360" y="110" width="110" height="50" as="geometry" />
        </mxCell>
        <mxCell id="8VyqAe7qQzPJQSPvrDRt-18" style="edgeStyle=orthogonalEdgeStyle;rounded=0;orthogonalLoop=1;jettySize=auto;html=1;exitX=1;exitY=0.5;exitDx=0;exitDy=0;entryX=0;entryY=0.5;entryDx=0;entryDy=0;" edge="1" parent="1" source="8VyqAe7qQzPJQSPvrDRt-6" target="8VyqAe7qQzPJQSPvrDRt-9">
          <mxGeometry relative="1" as="geometry" />
        </mxCell>
        <mxCell id="8VyqAe7qQzPJQSPvrDRt-31" style="edgeStyle=orthogonalEdgeStyle;rounded=0;orthogonalLoop=1;jettySize=auto;html=1;exitX=1;exitY=0.5;exitDx=0;exitDy=0;entryX=0;entryY=0.5;entryDx=0;entryDy=0;" edge="1" parent="1" source="8VyqAe7qQzPJQSPvrDRt-6" target="8VyqAe7qQzPJQSPvrDRt-8">
          <mxGeometry relative="1" as="geometry">
            <Array as="points">
              <mxPoint x="500" y="245" />
              <mxPoint x="500" y="135" />
            </Array>
          </mxGeometry>
        </mxCell>
        <mxCell id="8VyqAe7qQzPJQSPvrDRt-6" value="&lt;b&gt;&lt;font color=&quot;#000000&quot; style=&quot;font-size: 15px;&quot;&gt;.......&lt;/font&gt;&lt;/b&gt;" style="rounded=1;whiteSpace=wrap;html=1;fillColor=#6ac882;fontColor=#ffffff;strokeColor=#2D7600;" vertex="1" parent="1">
          <mxGeometry x="360" y="220" width="110" height="50" as="geometry" />
        </mxCell>
        <mxCell id="8VyqAe7qQzPJQSPvrDRt-25" style="edgeStyle=orthogonalEdgeStyle;rounded=0;orthogonalLoop=1;jettySize=auto;html=1;exitX=1;exitY=0.5;exitDx=0;exitDy=0;entryX=0;entryY=0.5;entryDx=0;entryDy=0;" edge="1" parent="1" source="8VyqAe7qQzPJQSPvrDRt-7" target="8VyqAe7qQzPJQSPvrDRt-10">
          <mxGeometry relative="1" as="geometry" />
        </mxCell>
        <mxCell id="8VyqAe7qQzPJQSPvrDRt-32" style="edgeStyle=orthogonalEdgeStyle;rounded=0;orthogonalLoop=1;jettySize=auto;html=1;exitX=1;exitY=0.5;exitDx=0;exitDy=0;entryX=0;entryY=0.5;entryDx=0;entryDy=0;" edge="1" parent="1">
          <mxGeometry relative="1" as="geometry">
            <mxPoint x="470" y="355" as="sourcePoint" />
            <mxPoint x="527" y="245" as="targetPoint" />
            <Array as="points">
              <mxPoint x="500" y="355" />
              <mxPoint x="500" y="245" />
            </Array>
          </mxGeometry>
        </mxCell>
        <mxCell id="8VyqAe7qQzPJQSPvrDRt-7" value="&lt;b&gt;&lt;font style=&quot;font-size: 13px;&quot;&gt;Classifier&lt;/font&gt;&lt;/b&gt;" style="rounded=1;whiteSpace=wrap;html=1;fillColor=#6ac882;fontColor=#ffffff;strokeColor=#2D7600;" vertex="1" parent="1">
          <mxGeometry x="360" y="330" width="110" height="50" as="geometry" />
        </mxCell>
        <mxCell id="8VyqAe7qQzPJQSPvrDRt-21" style="edgeStyle=orthogonalEdgeStyle;rounded=0;orthogonalLoop=1;jettySize=auto;html=1;exitX=1;exitY=0.5;exitDx=0;exitDy=0;entryX=0;entryY=0.5;entryDx=0;entryDy=0;" edge="1" parent="1" source="8VyqAe7qQzPJQSPvrDRt-8" target="8VyqAe7qQzPJQSPvrDRt-11">
          <mxGeometry relative="1" as="geometry" />
        </mxCell>
        <mxCell id="8VyqAe7qQzPJQSPvrDRt-8" value="&lt;b&gt;&lt;font color=&quot;#000000&quot; style=&quot;font-size: 15px;&quot;&gt;Predicted Result&lt;/font&gt;&lt;/b&gt;" style="rounded=1;whiteSpace=wrap;html=1;fillColor=#bcb9ae;fontColor=#ffffff;strokeColor=#2D7600;" vertex="1" parent="1">
          <mxGeometry x="527" y="110" width="110" height="50" as="geometry" />
        </mxCell>
        <mxCell id="8VyqAe7qQzPJQSPvrDRt-19" style="edgeStyle=orthogonalEdgeStyle;rounded=0;orthogonalLoop=1;jettySize=auto;html=1;exitX=1;exitY=0.5;exitDx=0;exitDy=0;" edge="1" parent="1" source="8VyqAe7qQzPJQSPvrDRt-9" target="8VyqAe7qQzPJQSPvrDRt-11">
          <mxGeometry relative="1" as="geometry" />
        </mxCell>
        <mxCell id="8VyqAe7qQzPJQSPvrDRt-9" value="&lt;b style=&quot;&quot;&gt;&lt;font color=&quot;#000000&quot; style=&quot;font-size: 15px;&quot;&gt;.......&lt;/font&gt;&lt;/b&gt;" style="rounded=1;whiteSpace=wrap;html=1;fillColor=#bcb9ae;fontColor=#ffffff;strokeColor=#2D7600;" vertex="1" parent="1">
          <mxGeometry x="527" y="220" width="110" height="50" as="geometry" />
        </mxCell>
        <mxCell id="8VyqAe7qQzPJQSPvrDRt-23" style="edgeStyle=orthogonalEdgeStyle;rounded=0;orthogonalLoop=1;jettySize=auto;html=1;exitX=1;exitY=0.5;exitDx=0;exitDy=0;entryX=0;entryY=0.5;entryDx=0;entryDy=0;" edge="1" parent="1" source="8VyqAe7qQzPJQSPvrDRt-10" target="8VyqAe7qQzPJQSPvrDRt-11">
          <mxGeometry relative="1" as="geometry" />
        </mxCell>
        <mxCell id="8VyqAe7qQzPJQSPvrDRt-10" value="&lt;b&gt;&lt;font style=&quot;font-size: 13px;&quot;&gt;Predicted Result&lt;/font&gt;&lt;/b&gt;" style="rounded=1;whiteSpace=wrap;html=1;fillColor=#bcb9ae;fontColor=#ffffff;strokeColor=#2D7600;" vertex="1" parent="1">
          <mxGeometry x="527" y="330" width="110" height="50" as="geometry" />
        </mxCell>
        <mxCell id="8VyqAe7qQzPJQSPvrDRt-26" style="edgeStyle=orthogonalEdgeStyle;rounded=0;orthogonalLoop=1;jettySize=auto;html=1;exitX=0.5;exitY=1;exitDx=0;exitDy=0;entryX=0.5;entryY=0;entryDx=0;entryDy=0;" edge="1" parent="1" source="8VyqAe7qQzPJQSPvrDRt-11" target="8VyqAe7qQzPJQSPvrDRt-12">
          <mxGeometry relative="1" as="geometry" />
        </mxCell>
        <mxCell id="8VyqAe7qQzPJQSPvrDRt-11" value="&lt;b&gt;&lt;font color=&quot;#000000&quot; style=&quot;font-size: 15px;&quot;&gt;Voting&amp;nbsp;&lt;/font&gt;&lt;/b&gt;&lt;div&gt;&lt;b&gt;&lt;font color=&quot;#000000&quot; style=&quot;font-size: 15px;&quot;&gt;Scheme&lt;/font&gt;&lt;/b&gt;&lt;/div&gt;" style="rounded=1;whiteSpace=wrap;html=1;fillColor=#94f0e0;fontColor=#ffffff;strokeColor=#2D7600;" vertex="1" parent="1">
          <mxGeometry x="680" y="220" width="110" height="50" as="geometry" />
        </mxCell>
        <mxCell id="8VyqAe7qQzPJQSPvrDRt-12" value="&lt;b&gt;&lt;font color=&quot;#000000&quot; style=&quot;font-size: 15px;&quot;&gt;Final Result&lt;/font&gt;&lt;/b&gt;" style="rounded=1;whiteSpace=wrap;html=1;fillColor=#94f0e0;fontColor=#ffffff;strokeColor=#2D7600;" vertex="1" parent="1">
          <mxGeometry x="680" y="330" width="110" height="50" as="geometry" />
        </mxCell>
        <mxCell id="8VyqAe7qQzPJQSPvrDRt-30" style="edgeStyle=orthogonalEdgeStyle;rounded=0;orthogonalLoop=1;jettySize=auto;html=1;exitX=0.5;exitY=0;exitDx=0;exitDy=0;entryX=0;entryY=0.5;entryDx=0;entryDy=0;" edge="1" parent="1" source="8VyqAe7qQzPJQSPvrDRt-13" target="8VyqAe7qQzPJQSPvrDRt-8">
          <mxGeometry relative="1" as="geometry">
            <Array as="points">
              <mxPoint x="95" y="90" />
              <mxPoint x="500" y="90" />
              <mxPoint x="500" y="135" />
            </Array>
          </mxGeometry>
        </mxCell>
        <mxCell id="8VyqAe7qQzPJQSPvrDRt-13" value="&lt;b&gt;&lt;font color=&quot;#000000&quot; style=&quot;font-size: 15px;&quot;&gt;Test Dataset&lt;/font&gt;&lt;/b&gt;" style="rounded=1;whiteSpace=wrap;html=1;fillColor=#c9dfb3;fontColor=#ffffff;strokeColor=#2D7600;" vertex="1" parent="1">
          <mxGeometry x="40" y="110" width="110" height="50" as="geometry" />
        </mxCell>
        <mxCell id="8VyqAe7qQzPJQSPvrDRt-33" value="&lt;b&gt;&lt;font color=&quot;#000000&quot; style=&quot;font-size: 14px;&quot;&gt;Data Transformation&lt;/font&gt;&lt;/b&gt;" style="rounded=1;whiteSpace=wrap;html=1;fillColor=#eac2ea;fontColor=#ffffff;strokeColor=#2D7600;" vertex="1" parent="1">
          <mxGeometry x="210" y="330" width="110" height="50" as="geometry" />
        </mxCell>
        <mxCell id="8VyqAe7qQzPJQSPvrDRt-34" value="&lt;b&gt;&lt;font color=&quot;#000000&quot; style=&quot;font-size: 15px;&quot;&gt;Classifier&lt;/font&gt;&lt;/b&gt;" style="rounded=1;whiteSpace=wrap;html=1;fillColor=#6ac882;fontColor=#ffffff;strokeColor=#2D7600;" vertex="1" parent="1">
          <mxGeometry x="360" y="330" width="110" height="50" as="geometry" />
        </mxCell>
        <mxCell id="8VyqAe7qQzPJQSPvrDRt-35" value="&lt;b&gt;&lt;font color=&quot;#000000&quot; style=&quot;font-size: 15px;&quot;&gt;Predicted Result&lt;/font&gt;&lt;/b&gt;" style="rounded=1;whiteSpace=wrap;html=1;fillColor=#bcb9ae;fontColor=#ffffff;strokeColor=#2D7600;" vertex="1" parent="1">
          <mxGeometry x="527" y="330" width="110" height="50" as="geometry" />
        </mxCell>
      </root>
    </mxGraphModel>
  </diagram>
</mxfile>
